<svg width="234" height="234" viewBox="0 0 234 234" fill="none" xmlns="http://www.w3.org/2000/svg">
<g clip-path="url(#clip0_7_175)">
<path d="M54.1125 160.875L60.9863 138.323H90.2947L97.1685 160.875H115.611L86.3021 73.1396H66.0026L36.5625 160.875H54.1125ZM76.0939 89.9144L86.8286 125.395H64.584L75.3188 89.9144H76.0939ZM145.694 91.7864C130.206 91.7864 120.057 102.975 120.057 121.665V131.83C120.057 150.535 130.075 161.709 145.504 161.709C155.405 161.709 163.376 156.882 165.497 149.95H166.33V160.875H182.973V68.5181H166.008V103.033H165.233C162.601 96.0862 155.288 91.7864 145.694 91.7864ZM151.354 105.285C159.837 105.285 166.008 111.72 166.008 121.929V130.733C166.008 141.848 160.217 148.283 151.617 148.283C142.872 148.283 137.402 141.716 137.402 130.031V123.406C137.402 111.779 142.813 105.285 151.354 105.285Z" fill="#FAFAFA"/>
<path d="M204.75 43.875C208.629 43.875 212.349 45.4158 215.091 48.1586C217.834 50.9013 219.375 54.6212 219.375 58.5V175.5C219.375 179.379 217.834 183.099 215.091 185.841C212.349 188.584 208.629 190.125 204.75 190.125H29.25C25.3712 190.125 21.6513 188.584 18.9086 185.841C16.1658 183.099 14.625 179.379 14.625 175.5V58.5C14.625 54.6212 16.1658 50.9013 18.9086 48.1586C21.6513 45.4158 25.3712 43.875 29.25 43.875H204.75ZM29.25 29.25C21.4924 29.25 14.0526 32.3317 8.56713 37.8171C3.08169 43.3026 0 50.7424 0 58.5L0 175.5C0 183.258 3.08169 190.697 8.56713 196.183C14.0526 201.668 21.4924 204.75 29.25 204.75H204.75C212.508 204.75 219.947 201.668 225.433 196.183C230.918 190.697 234 183.258 234 175.5V58.5C234 50.7424 230.918 43.3026 225.433 37.8171C219.947 32.3317 212.508 29.25 204.75 29.25H29.25Z" fill="#FAFAFA"/>
</g>
<defs>
<clipPath id="clip0_7_175">
<rect width="234" height="234" fill="white"/>
</clipPath>
</defs>
</svg>
