<svg width="68" height="68" viewBox="0 0 68 68" fill="none" xmlns="http://www.w3.org/2000/svg">
<g clip-path="url(#clip0_3_52)">
<path d="M57.8221 9.95828C51.5006 3.53653 43.0959 0 34.1561 0C25.2163 0 16.8116 3.53653 10.4901 9.95828C4.16872 16.3802 0.687454 24.9183 0.687454 34C0.687454 43.0817 4.16872 51.6198 10.4901 58.0417C16.8116 64.4635 25.2163 68 34.1561 68C43.0959 68 51.5006 64.4635 57.8221 58.0417C64.1435 51.6198 67.6248 43.0817 67.6248 34C67.6248 24.9183 64.1435 16.3802 57.8221 9.95828ZM34.1561 65.2909C17.172 65.2909 3.35423 51.2539 3.35423 34C3.35423 16.7461 17.172 2.70911 34.1561 2.70911C51.1403 2.70911 64.958 16.7462 64.958 34C64.958 51.2538 51.1403 65.2909 34.1561 65.2909Z" fill="#FAFAFA"/>
<path d="M34.1561 6.50195C19.2305 6.50195 7.08781 18.8374 7.08781 34C7.08781 49.1625 19.2305 61.498 34.1561 61.498C49.0817 61.498 61.2244 49.1625 61.2244 34C61.2244 18.8374 49.0817 6.50195 34.1561 6.50195ZM34.1561 58.7888C20.7011 58.7888 9.75472 47.6686 9.75472 34C9.75472 20.3313 20.7011 9.2112 34.1561 9.2112C47.6112 9.2112 58.5575 20.3313 58.5575 34C58.5575 47.6686 47.6112 58.7888 34.1561 58.7888Z" fill="#FAFAFA"/>
<path d="M35.1684 31.8335V21.8625C38.1367 22.0233 39.3242 23.3501 40.0364 23.3501C40.7487 23.3501 41.184 22.3853 41.184 21.8625C41.184 20.5358 38.0178 19.5307 35.1682 19.41V18.2442C35.1682 17.842 34.6932 17.4802 34.2578 17.4802C33.7433 17.4802 33.3475 17.8421 33.3475 18.2442V19.4905C29.9043 19.7318 26.1444 21.34 26.1444 26.4059C26.1444 31.5522 29.8647 32.7584 33.3475 34.0049V45.7049C28.44 45.5843 27.5693 42.4081 26.6194 42.4081C26.0257 42.4081 25.4322 43.2524 25.4322 43.8957C25.4322 45.3431 28.3611 48.1979 33.3478 48.238V49.6851C33.3478 50.0872 33.7437 50.4489 34.2581 50.4489C34.6935 50.4489 35.1684 50.0872 35.1684 49.6851V48.117C39.1261 47.5943 41.8965 45.1016 41.8965 40.2366C41.8965 34.7285 38.4535 33.0399 35.1684 31.8335ZM33.427 31.2308C30.8545 30.3061 28.6382 29.3009 28.6381 26.1648C28.6381 23.1896 30.9337 22.1041 33.427 21.903V31.2308ZM35.0498 45.6247V34.6485C37.4244 35.6536 39.3636 36.9803 39.3638 40.4783C39.3638 43.4534 37.8202 45.1823 35.0498 45.6247Z" fill="#FAFAFA"/>
<path d="M55.2333 38.3813C54.5225 38.1862 53.7905 38.6143 53.5988 39.3366C52.793 42.3746 51.2722 45.2298 49.2013 47.5933C48.7117 48.1521 48.7608 49.0083 49.3108 49.5057C49.5649 49.7355 49.8814 49.8484 50.1968 49.8484C50.5641 49.8484 50.9298 49.695 51.1933 49.3943C53.5383 46.7178 55.2606 43.4837 56.1737 40.0415C56.3655 39.3194 55.9444 38.576 55.2333 38.3813Z" fill="#FAFAFA"/>
<path d="M55.6241 32.6454C54.8876 32.6454 54.2907 33.2519 54.2907 34C54.2907 34.2118 54.2874 34.4258 54.2813 34.6359C54.2588 35.3836 54.837 36.0085 55.5732 36.0312C55.5872 36.0318 55.6009 36.0319 55.6148 36.0319C56.3323 36.0319 56.9246 35.4524 56.9467 34.7188C56.9539 34.4812 56.9576 34.2395 56.9576 34C56.9575 33.2519 56.3605 32.6454 55.6241 32.6454Z" fill="#FAFAFA"/>
</g>
<defs>
<clipPath id="clip0_3_52">
<rect width="66.9374" height="68" fill="white" transform="translate(0.687454)"/>
</clipPath>
</defs>
</svg>
