<svg width="50" height="50" viewBox="0 0 50 50" fill="none" xmlns="http://www.w3.org/2000/svg">
<g clip-path="url(#clip0_6_119)">
<path d="M47.576 28.4147C46.0129 26.8516 43.9345 25.9908 41.7241 25.9909H33.9527C33.4063 25.9909 32.9618 25.5464 32.9618 25C32.9618 24.4535 33.4063 24.009 33.9527 24.009H41.7246C46.2875 24.009 49.9998 20.2968 49.9998 15.7338C49.9998 11.434 46.7035 7.8897 42.5053 7.49517C42.3275 5.57956 41.4955 3.80213 40.1181 2.4246C39.7452 2.05165 39.1406 2.05155 38.7678 2.4245C38.3948 2.79744 38.3948 3.40193 38.7677 3.77488C39.9697 4.97712 40.6318 6.57555 40.6318 8.27544V8.41362C40.6318 8.94096 41.0592 9.3685 41.5867 9.3685H41.7249C45.2348 9.3685 48.0904 12.2241 48.0904 15.734C48.0904 19.2439 45.2348 22.0995 41.7249 22.0995H33.9529C32.3534 22.0995 31.0524 23.4006 31.0524 25.0001C31.0524 26.5995 32.3536 27.9006 33.9529 27.9006H41.7242C43.4246 27.9005 45.0232 28.5625 46.2255 29.7649C47.4279 30.9671 48.0902 32.5658 48.0902 34.2661C48.0902 37.7761 45.2346 40.6316 41.7247 40.6316H41.5865C41.059 40.6316 40.6316 41.0591 40.6316 41.5865V41.7247C40.6316 45.2346 37.7761 48.0902 34.2661 48.0902C32.5658 48.0902 30.9671 47.428 29.7649 46.2256C28.5626 45.0233 27.9004 43.4247 27.9006 41.7243V33.9529C27.9006 32.3535 26.5994 31.0524 25.0001 31.0524C23.4008 31.0524 22.0995 32.3535 22.0995 33.9529V41.7248C22.0995 42.2521 22.5269 42.6796 23.0544 42.6796C23.5818 42.6796 24.0092 42.2521 24.0092 41.7248V33.9529C24.0092 33.4065 24.4537 32.962 25.0002 32.962C25.5466 32.962 25.9911 33.4064 25.9911 33.9529V41.7243C25.991 43.9347 26.8517 46.013 28.4146 47.576C29.9775 49.1391 32.0558 49.9999 34.2662 49.9999C38.5659 49.9999 42.1103 46.7033 42.505 42.505C46.7033 42.1105 49.9999 38.566 49.9999 34.2662C49.9999 32.0559 49.139 29.9777 47.576 28.4147Z" fill="#FAFAFA"/>
<path d="M35.9326 0.168163C35.3875 0.0566403 34.8267 0 34.2661 0C29.7031 0 25.9909 3.71228 25.9909 8.27524V16.0471C25.9909 16.5936 25.5464 17.038 25 17.038C24.4535 17.038 24.009 16.5936 24.009 16.0471V8.27524C24.0089 3.71228 20.2968 0 15.7338 0C11.4341 0 7.8896 3.29666 7.49498 7.49507C3.29676 7.8896 9.76557e-05 11.4339 9.76557e-05 15.7337C9.76557e-05 20.2967 3.71238 24.0089 8.27534 24.0089H16.0472C16.5935 24.0089 17.038 24.4534 17.038 24.9999C17.038 25.5463 16.5936 25.9908 16.0472 25.9908H8.27524C3.71228 25.9909 0 29.703 0 34.2661C0 38.5659 3.29666 42.1102 7.49488 42.5048C7.8896 46.7031 11.4339 49.9997 15.7337 49.9997C18.487 49.9997 21.0519 48.636 22.5951 46.3519C22.8902 45.915 22.7754 45.3214 22.3382 45.0261C21.9011 44.731 21.3078 44.8458 21.0125 45.2829C19.8252 47.0406 17.8517 48.09 15.7336 48.09C12.2237 48.09 9.36811 45.2344 9.36811 41.7245V41.5864C9.36811 41.059 8.94067 40.6315 8.41323 40.6315H8.27505C4.76511 40.6316 1.90956 37.7759 1.90956 34.266C1.90956 30.7561 4.76511 27.9005 8.27505 27.9005H16.0469C17.6464 27.9005 18.9473 26.5994 18.9473 25C18.9473 23.4005 17.6462 22.0994 16.0469 22.0994H8.27524C4.7653 22.0994 1.90975 19.2438 1.90975 15.7339C1.90975 12.224 4.7653 9.3684 8.27524 9.3684H8.41333C8.94077 9.3684 9.36821 8.94087 9.36821 8.41352V8.27544C9.36821 4.7655 12.2238 1.90995 15.7337 1.90995C19.2436 1.90995 22.0992 4.7655 22.0992 8.27544V16.0473C22.0992 17.6468 23.4004 18.9478 24.9998 18.9478C26.5991 18.9478 27.9003 17.6467 27.9003 16.0473V8.27524C27.9003 4.7653 30.7559 1.90975 34.2658 1.90975C34.6981 1.90975 35.1302 1.95331 35.5498 2.03915C36.0665 2.14491 36.571 1.81161 36.6766 1.29511C36.7825 0.778413 36.4494 0.273827 35.9326 0.168163Z" fill="#FAFAFA"/>
<path d="M37.8498 36.6192L27.6033 26.3273C27.2311 25.9535 26.6266 25.9522 26.253 26.3244C25.8794 26.6963 25.8781 27.301 26.25 27.6747L36.4964 37.9666C36.683 38.154 36.9281 38.2477 37.173 38.2477C37.4167 38.2477 37.6604 38.1551 37.8467 37.9695C38.2205 37.5974 38.2217 36.9929 37.8498 36.6192Z" fill="#FAFAFA"/>
<path d="M23.4315 22.1409L13.503 12.1711C13.1307 11.7975 12.5261 11.7962 12.1527 12.1683C11.7789 12.5405 11.7778 13.145 12.1499 13.5186L22.0784 23.4883C22.2651 23.6758 22.5101 23.7695 22.755 23.7695C22.9986 23.7695 23.2425 23.6768 23.4287 23.4912C23.8025 23.1191 23.8037 22.5145 23.4315 22.1409Z" fill="#FAFAFA"/>
<path d="M37.9003 12.222C37.5281 11.8483 36.9235 11.8471 36.55 12.2191L33.5803 15.1765C33.2065 15.5487 33.2054 16.1532 33.5775 16.5268C33.7641 16.7142 34.0091 16.808 34.2541 16.808C34.4977 16.808 34.7415 16.7153 34.9278 16.5297L37.8975 13.5723C38.2713 13.2001 38.2725 12.5956 37.9003 12.222Z" fill="#FAFAFA"/>
<path d="M32.2521 17.8468C31.8798 17.4732 31.2753 17.4719 30.9018 17.844L21.0641 27.641C20.6903 28.0131 20.6892 28.6176 21.0613 28.9913C21.2479 29.1787 21.4929 29.2724 21.7378 29.2724C21.9815 29.2724 22.2253 29.1797 22.4115 28.9941L32.2493 19.1971C32.623 18.825 32.6243 18.2204 32.2521 17.8468Z" fill="#FAFAFA"/>
<path d="M19.9926 30.0585C19.6203 29.6847 19.0157 29.6834 18.6423 30.0555L12.1024 36.5655C11.7286 36.9375 11.7273 37.5422 12.0994 37.9158C12.286 38.1032 12.5311 38.197 12.776 38.197C13.0197 38.197 13.2634 38.1044 13.4497 37.9188L19.9896 31.4088C20.3634 31.0368 20.3646 30.4321 19.9926 30.0585Z" fill="#FAFAFA"/>
</g>
<defs>
<clipPath id="clip0_6_119">
<rect width="50" height="50" fill="white"/>
</clipPath>
</defs>
</svg>
