<svg width="191" height="191" viewBox="0 0 191 191" fill="none" xmlns="http://www.w3.org/2000/svg">
<g clip-path="url(#clip0_6_36)">
<path d="M181.74 108.544C175.769 102.573 167.83 99.2848 159.386 99.2852H129.699C127.612 99.2852 125.914 97.5875 125.914 95.4999C125.914 93.4123 127.612 91.7146 129.699 91.7146H159.388C176.818 91.7146 190.999 77.5337 190.999 60.1032C190.999 43.678 178.408 30.1387 162.37 28.6316C161.691 21.314 158.513 14.5242 153.251 9.26204C151.827 7.83738 149.517 7.83701 148.093 9.26167C146.668 10.6863 146.668 12.9955 148.093 14.4201C152.684 19.0127 155.213 25.1187 155.213 31.6123V32.1401C155.213 34.1546 156.846 35.7878 158.861 35.7878H159.389C172.797 35.7878 183.705 46.6959 183.705 60.1039C183.705 73.5119 172.797 84.4201 159.389 84.4201H129.7C123.59 84.4201 118.62 89.3905 118.62 95.5003C118.62 101.61 123.591 106.58 129.7 106.58H159.386C165.882 106.58 171.989 109.109 176.581 113.702C181.174 118.294 183.704 124.402 183.704 130.897C183.704 144.305 172.796 155.213 159.388 155.213H158.86C156.846 155.213 155.213 156.846 155.213 158.86V159.388C155.213 172.796 144.305 183.704 130.897 183.704C124.401 183.704 118.294 181.175 113.702 176.582C109.109 171.989 106.58 165.882 106.58 159.387V129.7C106.58 123.591 101.61 118.62 95.5002 118.62C89.3909 118.62 84.42 123.591 84.42 129.7V159.389C84.42 161.403 86.0529 163.036 88.0677 163.036C90.0825 163.036 91.7153 161.403 91.7153 159.389V129.7C91.7153 127.613 93.413 125.915 95.5006 125.915C97.5881 125.915 99.2859 127.613 99.2859 129.7V159.387C99.2855 167.831 102.574 175.77 108.544 181.74C114.514 187.711 122.453 191 130.897 191C147.322 191 160.861 178.407 162.369 162.369C178.407 160.862 191 147.322 191 130.897C191 122.453 187.711 114.515 181.74 108.544Z" fill="#FAFAFA"/>
<path d="M137.263 0.642383C135.18 0.216366 133.038 0 130.897 0C113.466 0 99.2851 14.1809 99.2851 31.6114V61.2998C99.2851 63.3874 97.5874 65.0851 95.4998 65.0851C93.4122 65.0851 91.7145 63.3874 91.7145 61.2998V31.6114C91.7141 14.1809 77.5336 0 60.1031 0C43.6783 0 30.1383 12.5932 28.6308 28.6312C12.5936 30.1383 0.000373045 43.6776 0.000373045 60.1027C0.000373045 77.5332 14.1813 91.7141 31.6118 91.7141H61.3002C63.387 91.7141 65.0851 93.4119 65.0851 95.4994C65.0851 97.587 63.3874 99.2847 61.3002 99.2847H31.6114C14.1809 99.2851 0 113.466 0 130.897C0 147.322 12.5932 160.861 28.6304 162.368C30.1383 178.406 43.6776 190.999 60.1027 190.999C70.6203 190.999 80.4184 185.79 86.3132 177.064C87.4405 175.395 87.0018 173.128 85.3321 172C83.6623 170.872 81.3957 171.311 80.2676 172.981C75.7322 179.695 68.1933 183.704 60.1023 183.704C46.6944 183.704 35.7862 172.795 35.7862 159.387V158.86C35.7862 156.846 34.1534 155.212 32.1385 155.212H31.6107C18.2027 155.213 7.29452 144.304 7.29452 130.896C7.29452 117.488 18.2027 106.58 31.6107 106.58H61.2991C67.4092 106.58 72.3789 101.61 72.3789 95.4998C72.3789 89.3901 67.4084 84.4196 61.2991 84.4196H31.6114C18.2035 84.4196 7.29526 73.5114 7.29526 60.1035C7.29526 46.6955 18.2035 35.7873 31.6114 35.7873H32.1389C34.1537 35.7873 35.7865 34.1541 35.7865 32.1397V31.6122C35.7865 18.2042 46.6947 7.29601 60.1027 7.29601C73.5107 7.29601 84.4189 18.2042 84.4189 31.6122V61.3006C84.4189 67.4107 89.3897 72.3807 95.4991 72.3807C101.608 72.3807 106.579 67.4103 106.579 61.3006V31.6114C106.579 18.2035 117.487 7.29526 130.895 7.29526C132.547 7.29526 134.197 7.46164 135.8 7.78955C137.774 8.19355 139.701 6.92035 140.105 4.94732C140.509 2.97354 139.237 1.04602 137.263 0.642383Z" fill="#FAFAFA"/>
<path d="M144.586 139.886L105.445 100.57C104.023 99.1423 101.714 99.1375 100.286 100.559C98.8595 101.98 98.8542 104.29 100.275 105.717L139.416 145.032C140.129 145.748 141.065 146.106 142.001 146.106C142.932 146.106 143.863 145.752 144.575 145.044C146.002 143.622 146.007 141.313 144.586 139.886Z" fill="#FAFAFA"/>
<path d="M89.5087 84.5783L51.5816 46.4938C50.1596 45.0665 47.85 45.0617 46.4235 46.483C44.9955 47.9047 44.9914 50.2138 46.4127 51.6411L84.3398 89.7256C85.0527 90.4414 85.9886 90.7996 86.9242 90.7996C87.855 90.7996 88.7865 90.4455 89.4979 89.7364C90.9259 88.3151 90.9304 86.0056 89.5087 84.5783Z" fill="#FAFAFA"/>
<path d="M144.779 46.6881C143.357 45.2609 141.048 45.256 139.621 46.6773L128.277 57.9746C126.849 59.3963 126.845 61.7054 128.266 63.1327C128.979 63.8486 129.915 64.2067 130.851 64.2067C131.781 64.2067 132.713 63.8527 133.424 63.1435L144.769 51.8462C146.197 50.4245 146.201 48.1154 144.779 46.6881Z" fill="#FAFAFA"/>
<path d="M123.203 68.1747C121.781 66.7474 119.471 66.7426 118.045 68.1639L80.4647 105.588C79.0366 107.01 79.0325 109.319 80.4538 110.747C81.1667 111.462 82.1027 111.821 83.0383 111.821C83.969 111.821 84.9005 111.467 85.6119 110.757L123.192 73.3328C124.62 71.9115 124.625 69.602 123.203 68.1747Z" fill="#FAFAFA"/>
<path d="M76.3715 114.824C74.9495 113.396 72.64 113.391 71.2134 114.812L46.231 139.68C44.803 141.101 44.7982 143.411 46.2195 144.838C46.9323 145.554 47.8687 145.913 48.8043 145.913C49.735 145.913 50.6662 145.559 51.3775 144.85L76.36 119.982C77.788 118.561 77.7928 116.251 76.3715 114.824Z" fill="#FAFAFA"/>
</g>
<defs>
<clipPath id="clip0_6_36">
<rect width="191" height="191" fill="white"/>
</clipPath>
</defs>
</svg>
