<svg width="190" height="190" viewBox="0 0 190 190" fill="none" xmlns="http://www.w3.org/2000/svg">
<g clip-path="url(#clip0_6_23)">
<path d="M173.302 164.855L104.587 103.539C99.1223 98.6624 90.8784 98.6624 85.4122 103.539L16.6977 164.855C12.2008 168.868 10.683 175.099 12.8302 180.73C14.9773 186.361 20.2591 190 26.2856 190H163.715C169.742 190 175.023 186.362 177.171 180.73C179.317 175.099 177.799 168.868 173.302 164.855ZM170.097 178.033C169.286 180.159 167.184 182.43 163.714 182.43H26.2852C22.8159 182.43 20.7137 180.159 19.9028 178.033C19.0923 175.908 19.1484 172.813 21.7375 170.503L90.4524 109.188C91.749 108.031 93.3744 107.452 95.0002 107.452C96.6259 107.452 98.2517 108.031 99.5479 109.187L168.262 170.503C170.851 172.813 170.907 175.908 170.097 178.033Z" fill="#FAFAFA"/>
<path d="M173.302 64.9738L104.587 3.65739C99.1219 -1.21915 90.8784 -1.21989 85.4122 3.65776L16.6977 64.9742C12.2008 68.9865 10.683 75.2179 12.8302 80.8488C14.9773 86.4802 20.2591 90.1187 26.2856 90.1187H163.715C169.742 90.1187 175.023 86.4805 177.171 80.8484C179.317 75.2171 177.799 68.9865 173.302 64.9738ZM170.097 78.1517C169.286 80.2773 167.184 82.5484 163.714 82.5484H26.2852C22.8159 82.5484 20.7137 80.2773 19.9028 78.1517C19.0923 76.0261 19.1484 72.9315 21.7375 70.6215L90.4524 9.30579C91.749 8.14873 93.3744 7.57056 95.0002 7.57056C96.6259 7.57056 98.2517 8.1491 99.5479 9.30542L168.262 70.6215C170.851 72.9312 170.907 76.0261 170.097 78.1517Z" fill="#FAFAFA"/>
<path d="M57.5016 50.0982C56.1104 48.5382 53.718 48.4023 52.1579 49.7936L50.4687 51.3006C48.909 52.6922 48.7728 55.085 50.1644 56.6443C50.9121 57.4826 51.9486 57.9097 52.9899 57.9097C53.8864 57.9097 54.7871 57.5928 55.5081 56.949L57.1973 55.442C58.757 54.0504 58.8932 51.6576 57.5016 50.0982Z" fill="#FAFAFA"/>
<path d="M97.0787 14.7821C95.6871 13.2231 93.2943 13.0862 91.735 14.4781L62.5388 40.5304C60.9791 41.922 60.843 44.3144 62.2346 45.8741C62.9823 46.712 64.0188 47.1391 65.0601 47.1391C65.9566 47.1391 66.8573 46.8222 67.5783 46.178L96.7744 20.1254C98.3341 18.7342 98.4703 16.3418 97.0787 14.7821Z" fill="#FAFAFA"/>
</g>
<defs>
<clipPath id="clip0_6_23">
<rect width="190" height="190" fill="white"/>
</clipPath>
</defs>
</svg>
