<svg width="68" height="68" viewBox="0 0 68 68" fill="none" xmlns="http://www.w3.org/2000/svg">
<g clip-path="url(#clip0_3_32)">
<path d="M57.8222 9.95828C51.5007 3.53653 43.096 0 34.1562 0C25.2164 0 16.8117 3.53653 10.4902 9.95828C4.16877 16.3802 0.6875 24.9183 0.6875 34C0.6875 43.0817 4.16877 51.6198 10.4902 58.0417C16.8117 64.4635 25.2164 68 34.1562 68C43.096 68 51.5007 64.4635 57.8222 58.0417C64.1436 51.6198 67.6249 43.0817 67.6249 34C67.6249 24.9183 64.1436 16.3802 57.8222 9.95828ZM34.1562 65.2909C17.172 65.2909 3.35427 51.2539 3.35427 34C3.35427 16.7461 17.172 2.70911 34.1562 2.70911C51.1404 2.70911 64.9581 16.7462 64.9581 34C64.9581 51.2538 51.1404 65.2909 34.1562 65.2909Z" fill="#FAFAFA"/>
<path d="M34.1562 6.50197C19.2306 6.50197 7.08786 18.8375 7.08786 34C7.08786 49.1625 19.2306 61.498 34.1562 61.498C49.0818 61.498 61.2245 49.1625 61.2245 34C61.2245 18.8375 49.0818 6.50197 34.1562 6.50197ZM34.1562 58.7888C20.7011 58.7888 9.75476 47.6687 9.75476 34C9.75476 20.3313 20.7011 9.21121 34.1562 9.21121C47.6112 9.21121 58.5576 20.3313 58.5576 34C58.5576 47.6687 47.6112 58.7888 34.1562 58.7888Z" fill="#FAFAFA"/>
<path d="M35.1685 31.8336V21.8625C38.1367 22.0234 39.3242 23.3502 40.0365 23.3502C40.7487 23.3502 41.1841 22.3853 41.1841 21.8625C41.1841 20.5359 38.0179 19.5307 35.1682 19.41V18.2442C35.1682 17.842 34.6932 17.4802 34.2579 17.4802C33.7433 17.4802 33.3476 17.8422 33.3476 18.2442V19.4905C29.9044 19.7318 26.1445 21.34 26.1445 26.4059C26.1445 31.5523 29.8647 32.7585 33.3476 34.0049V45.7049C28.4401 45.5843 27.5694 42.4081 26.6195 42.4081C26.0258 42.4081 25.4322 43.2524 25.4322 43.8957C25.4322 45.3431 28.3611 48.1979 33.3478 48.238V49.6852C33.3478 50.0872 33.7437 50.449 34.2582 50.449C34.6935 50.449 35.1685 50.0872 35.1685 49.6852V48.117C39.1261 47.5943 41.8966 45.1017 41.8966 40.2366C41.8966 34.7285 38.4535 33.0399 35.1685 31.8336ZM33.4271 31.2309C30.8545 30.3061 28.6383 29.301 28.6382 26.1649C28.6382 23.1896 30.9338 22.1041 33.4271 21.903V31.2309ZM35.0499 45.6247V34.6485C37.4245 35.6536 39.3637 36.9803 39.3638 40.4783C39.3638 43.4535 37.8202 45.1823 35.0499 45.6247Z" fill="#FAFAFA"/>
<path d="M55.2333 38.3814C54.5225 38.1863 53.7905 38.6143 53.5989 39.3367C52.793 42.3746 51.2723 45.2298 49.2014 47.5934C48.7118 48.1521 48.7608 49.0083 49.3108 49.5057C49.565 49.7355 49.8815 49.8484 50.1968 49.8484C50.5642 49.8484 50.9299 49.695 51.1933 49.3943C53.5383 46.7179 55.2607 43.4837 56.1737 40.0415C56.3655 39.3194 55.9444 38.5761 55.2333 38.3814Z" fill="#FAFAFA"/>
<path d="M55.6241 32.6454C54.8877 32.6454 54.2907 33.2519 54.2907 34C54.2907 34.2118 54.2875 34.4258 54.2813 34.6359C54.2588 35.3836 54.8371 36.0085 55.5733 36.0312C55.5872 36.0318 55.601 36.0319 55.6148 36.0319C56.3323 36.0319 56.9247 35.4524 56.9468 34.7188C56.954 34.4812 56.9576 34.2395 56.9576 34C56.9575 33.2519 56.3606 32.6454 55.6241 32.6454Z" fill="#FAFAFA"/>
</g>
<defs>
<clipPath id="clip0_3_32">
<rect width="66.9374" height="68" fill="white" transform="translate(0.6875)"/>
</clipPath>
</defs>
</svg>
