<svg width="56" height="71" viewBox="0 0 56 71" fill="none" xmlns="http://www.w3.org/2000/svg">
<path d="M30.8265 43.7546H15.3793C9.40806 43.7546 4.34545 48.1315 3.50099 54.0243C2.38208 61.8319 9.01693 68.563 16.8676 67.5848L18.9271 67.3281C25.7252 66.4813 30.8265 60.7204 30.8265 53.891V19.4123C30.8265 13.4538 30.8265 10.4746 32.5771 8.41463C34.3274 6.35469 37.2755 5.86494 43.1713 4.88535L51.8755 3.43921C52.3771 3.35585 52.6279 3.31417 52.7634 3.4603C52.8986 3.60643 52.8369 3.85234 52.7135 4.34412L49.4068 17.5297C49.3518 17.7495 49.3241 17.8593 49.2465 17.933C49.1694 18.0066 49.0578 18.0288 48.8351 18.0732L30.8265 21.6637" stroke="#33363F" stroke-width="5"/>
</svg>
