<svg width="50" height="50" viewBox="0 0 50 50" fill="none" xmlns="http://www.w3.org/2000/svg">
<g clip-path="url(#clip0_6_98)">
<path d="M45.6058 43.383L27.5229 27.2471C26.0848 25.9638 23.9153 25.9638 22.4768 27.2472L4.39407 43.383C3.21068 44.4389 2.81126 46.0787 3.3763 47.5605C3.94134 49.0425 5.33128 50 6.91721 50H43.0829C44.6689 50 46.0587 49.0426 46.6238 47.5605C47.1886 46.0787 46.7891 44.439 45.6058 43.383ZM44.7623 46.8509C44.549 47.4102 43.9958 48.0079 43.0827 48.0079H6.91711C6.00413 48.0079 5.45091 47.4102 5.23753 46.8509C5.02425 46.2915 5.03899 45.4771 5.72034 44.8692L23.8032 28.7336C24.1444 28.4291 24.5722 28.277 25 28.277C25.4278 28.277 25.8557 28.4291 26.1968 28.7335L44.2795 44.8693C44.9608 45.477 44.9755 46.2915 44.7623 46.8509Z" fill="#1E1E1E"/>
<path d="M45.6058 17.0984L27.5229 0.962474C26.0847 -0.320825 23.9153 -0.32102 22.4768 0.962571L4.39407 17.0985C3.21068 18.1543 2.81126 19.7942 3.3763 21.276C3.94134 22.7579 5.33128 23.7155 6.91721 23.7155H43.0829C44.6689 23.7155 46.0587 22.758 46.6238 21.2759C47.1886 19.794 46.7891 18.1543 45.6058 17.0984ZM44.7623 20.5662C44.549 21.1256 43.9958 21.7233 43.0827 21.7233H6.91711C6.00413 21.7233 5.45091 21.1256 5.23753 20.5662C5.02425 20.0069 5.03899 19.1925 5.72034 18.5846L23.8032 2.4489C24.1444 2.1444 24.5722 1.99226 25 1.99226C25.4278 1.99226 25.8557 2.1445 26.1968 2.4488L44.2795 18.5846C44.9608 19.1924 44.9755 20.0069 44.7623 20.5662Z" fill="#1E1E1E"/>
<path d="M15.132 13.1838C14.7659 12.7732 14.1363 12.7375 13.7258 13.1036L13.2813 13.5002C12.8708 13.8664 12.835 14.4961 13.2012 14.9064C13.398 15.127 13.6707 15.2394 13.9447 15.2394C14.1807 15.2394 14.4177 15.156 14.6074 14.9866L15.052 14.59C15.4624 14.2238 15.4983 13.5941 15.132 13.1838Z" fill="#1E1E1E"/>
<path d="M25.547 3.89004C25.1808 3.47979 24.5511 3.44376 24.1407 3.81006L16.4575 10.6659C16.0471 11.0321 16.0113 11.6617 16.3775 12.0722C16.5742 12.2927 16.847 12.4051 17.121 12.4051C17.357 12.4051 17.594 12.3217 17.7837 12.1521L25.4669 5.29619C25.8773 4.93008 25.9132 4.30049 25.547 3.89004Z" fill="#1E1E1E"/>
</g>
<defs>
<clipPath id="clip0_6_98">
<rect width="50" height="50" fill="white"/>
</clipPath>
</defs>
</svg>
