<svg width="84" height="84" viewBox="0 0 84 84" fill="none" xmlns="http://www.w3.org/2000/svg">
<path d="M42 28C39.2311 28 36.5243 28.8211 34.222 30.3594C31.9197 31.8978 30.1253 34.0843 29.0657 36.6424C28.0061 39.2006 27.7288 42.0155 28.269 44.7313C28.8092 47.447 30.1426 49.9416 32.1005 51.8995C34.0584 53.8574 36.553 55.1908 39.2687 55.731C41.9845 56.2712 44.7994 55.9939 47.3576 54.9343C49.9157 53.8747 52.1022 52.0803 53.6406 49.778C55.1789 47.4757 56 44.7689 56 42C56 38.287 54.525 34.726 51.8995 32.1005C49.274 29.475 45.713 28 42 28ZM42 49C40.6155 49 39.2622 48.5895 38.111 47.8203C36.9599 47.0511 36.0627 45.9579 35.5328 44.6788C35.003 43.3997 34.8644 41.9922 35.1345 40.6344C35.4046 39.2765 36.0713 38.0292 37.0503 37.0503C38.0292 36.0713 39.2765 35.4046 40.6344 35.1345C41.9922 34.8644 43.3997 35.003 44.6788 35.5328C45.9579 36.0627 47.0511 36.9599 47.8203 38.111C48.5895 39.2622 49 40.6155 49 42C49 43.8565 48.2625 45.637 46.9497 46.9497C45.637 48.2625 43.8565 49 42 49ZM73.465 31.5H67.9525C67.9245 31.423 67.8265 31.1255 67.7915 31.0485L71.6765 27.1635C72.9944 25.8438 73.7346 24.055 73.7346 22.19C73.7346 20.325 72.9944 18.5362 71.6765 17.2165L66.7765 12.3165C66.1243 11.6623 65.3491 11.1436 64.4955 10.7904C63.6419 10.4372 62.7268 10.2564 61.803 10.2585C60.8804 10.2573 59.9666 10.4385 59.1143 10.7917C58.262 11.1449 57.4879 11.6631 56.8365 12.3165L52.745 16.142L52.5 16.03V10.5315C52.4981 8.66659 51.7563 6.87865 50.4372 5.56029C49.1182 4.24193 47.3299 3.50093 45.465 3.5H38.535C36.6701 3.50093 34.8818 4.24193 33.5628 5.56029C32.2437 6.87865 31.5019 8.66659 31.5 10.5315V15.981L31.199 16.1525L31.0485 16.2085L27.1775 12.327C26.526 11.6725 25.7515 11.1535 24.8985 10.7997C24.0455 10.4458 23.1309 10.2643 22.2075 10.2655C21.2837 10.2634 20.3686 10.4442 19.515 10.7974C18.6614 11.1506 17.8862 11.6693 17.234 12.3235L12.334 17.2235C11.0161 18.5432 10.2759 20.332 10.2759 22.197C10.2759 24.062 11.0161 25.8508 12.334 27.1705L16.184 31.171C16.1385 31.2725 16.0685 31.3915 16.0335 31.4965H10.535C8.66949 31.4974 6.88065 32.2389 5.56153 33.558C4.24241 34.8771 3.50093 36.666 3.5 38.5315V45.4685C3.50185 47.3334 4.24375 49.1214 5.56276 50.4397C6.88178 51.7581 8.67009 52.4991 10.535 52.5H16.0475C16.0755 52.577 16.1735 52.8745 16.2085 52.9515L12.3235 56.8365C11.0056 58.1562 10.2654 59.945 10.2654 61.81C10.2654 63.675 11.0056 65.4638 12.3235 66.7835L17.2235 71.6835C18.5638 72.9617 20.3449 73.6748 22.197 73.6748C24.0491 73.6748 25.8302 72.9617 27.1705 71.6835L31.073 67.781C31.15 67.8195 31.423 67.9455 31.4965 67.977V73.4755C31.5002 75.3398 32.2434 77.1265 33.563 78.4434C34.8825 79.7604 36.6707 80.5 38.535 80.5H45.465C47.3299 80.4991 49.1182 79.7581 50.4372 78.4397C51.7563 77.1214 52.4981 75.3334 52.5 73.4685V68.019L52.9515 67.7915L56.833 71.673C58.1731 72.9531 59.955 73.6674 61.8083 73.6674C63.6615 73.6674 65.4434 72.9531 66.7835 71.673L71.6835 66.773C73.0014 65.4533 73.7416 63.6645 73.7416 61.7995C73.7416 59.9345 73.0014 58.1457 71.6835 56.826L67.8335 52.8255C67.879 52.724 67.949 52.605 67.984 52.5H73.465C75.3299 52.4991 77.1182 51.7581 78.4372 50.4397C79.7563 49.1214 80.4982 47.3334 80.5 45.4685V38.5315C80.4982 36.6666 79.7563 34.8787 78.4372 33.5603C77.1182 32.2419 75.3299 31.5009 73.465 31.5ZM73.465 45.5H67.9735C66.5571 45.5416 65.1829 45.9918 64.0164 46.7963C62.8499 47.6008 61.9408 48.7254 61.3986 50.0346C60.8565 51.3438 60.7043 52.7819 60.9605 54.1755C61.2166 55.5692 61.8702 56.8592 62.8425 57.89L66.724 61.824L61.775 66.724L57.89 62.8425C56.8594 61.8704 55.5698 61.2168 54.1764 60.9605C52.783 60.7042 51.3452 60.8561 50.0362 61.3979C48.7271 61.9396 47.6025 62.8482 46.7977 64.0142C45.9929 65.1801 45.5423 66.5539 45.5 67.97L45.465 73.5L38.5 73.4685V67.97C38.4826 66.5412 38.0375 65.1503 37.2221 63.9769C36.4068 62.8034 35.2585 61.9012 33.9255 61.3865C33.0203 61.0099 32.0499 60.8149 31.0695 60.8125C30.15 60.8086 29.2388 60.9858 28.3878 61.3341C27.5368 61.6824 26.7628 62.195 26.11 62.8425L22.176 66.724L17.276 61.775L21.154 57.897C22.1284 56.8666 22.7838 55.5764 23.0414 54.1819C23.299 52.7874 23.1476 51.3481 22.6056 50.0377C22.0636 48.7273 21.1541 47.6016 19.9867 46.7965C18.8194 45.9913 17.444 45.5411 16.0265 45.5L10.5 45.4685L10.535 38.5H16.0265C17.4429 38.4584 18.8171 38.0082 19.9836 37.2037C21.1501 36.3992 22.0592 35.2746 22.6014 33.9654C23.1435 32.6562 23.2957 31.2181 23.0395 29.8245C22.7834 28.4308 22.1298 27.1408 21.1575 26.11L17.276 22.176L22.225 17.276L26.11 21.1575C27.1187 22.1451 28.3976 22.8115 29.7849 23.0726C31.1722 23.3336 32.6058 23.1775 33.9045 22.624L33.9675 22.5995C35.2913 22.0803 36.4299 21.1776 37.2374 20.0072C38.0449 18.8368 38.4846 17.4519 38.5 16.03L38.535 10.5L45.5 10.5315V16.03C45.4997 17.4098 45.9072 18.7589 46.6713 19.9078C47.4354 21.0567 48.5219 21.9542 49.7945 22.4875C49.8855 22.533 49.994 22.582 50.099 22.624C51.3971 23.1777 52.8302 23.3339 54.217 23.0728C55.6038 22.8118 56.8821 22.1452 57.89 21.1575L61.824 17.276L66.724 22.225L62.846 26.103C61.8716 27.1334 61.2162 28.4236 60.9586 29.8181C60.701 31.2126 60.8524 32.6519 61.3944 33.9623C61.9364 35.2727 62.8459 36.3984 64.0133 37.2035C65.1806 38.0087 66.556 38.4589 67.9735 38.5H73.465L73.5 38.5315L73.465 45.5Z" fill="#FAFAFA"/>
</svg>
