<svg width="218" height="218" viewBox="0 0 218 218" fill="none" xmlns="http://www.w3.org/2000/svg">
<path d="M109 72.6666C101.814 72.6666 94.7893 74.7975 88.8143 78.7899C82.8393 82.7822 78.1824 88.4567 75.4324 95.0958C72.6824 101.735 71.9629 109.04 73.3648 116.088C74.7667 123.136 78.2272 129.61 83.3085 134.691C88.3898 139.773 94.8638 143.233 101.912 144.635C108.96 146.037 116.265 145.318 122.904 142.568C129.543 139.818 135.218 135.161 139.21 129.186C143.202 123.211 145.333 116.186 145.333 109C145.333 99.3637 141.505 90.1222 134.692 83.3084C127.878 76.4946 118.636 72.6666 109 72.6666ZM109 127.167C105.407 127.167 101.895 126.101 98.9072 124.105C95.9197 122.109 93.5912 119.272 92.2162 115.952C90.8412 112.632 90.4815 108.98 91.1824 105.456C91.8834 101.932 93.6136 98.6948 96.1542 96.1542C98.6949 93.6135 101.932 91.8833 105.456 91.1823C108.98 90.4814 112.633 90.8411 115.952 92.2161C119.272 93.5911 122.109 95.9196 124.105 98.9071C126.101 101.895 127.167 105.407 127.167 109C127.167 113.818 125.253 118.439 121.846 121.846C118.439 125.253 113.818 127.167 109 127.167ZM190.659 81.7499H176.353C176.28 81.5501 176.026 80.778 175.935 80.5782L186.018 70.4957C189.438 67.0708 191.359 62.4284 191.359 57.5883C191.359 52.7481 189.438 48.1058 186.018 44.6808L173.301 31.9642C171.608 30.2663 169.596 28.9202 167.381 28.0035C165.166 27.0868 162.791 26.6177 160.394 26.6232C157.999 26.6201 155.628 27.0904 153.416 28.007C151.204 28.9236 149.195 30.2684 147.504 31.9642L136.886 41.8923L136.25 41.6016V27.3317C136.245 22.4918 134.32 17.8517 130.897 14.4302C127.473 11.0087 122.832 9.08566 117.993 9.08325H100.008C95.1676 9.08566 90.5265 11.0087 87.1034 14.4302C83.6802 17.8517 81.7548 22.4918 81.75 27.3317V41.4744L80.9688 41.9195L80.5783 42.0648L70.5321 31.9914C68.8413 30.2929 66.8312 28.9458 64.6175 28.0276C62.4038 27.1094 60.0303 26.6382 57.6338 26.6413C55.2363 26.6359 52.8615 27.105 50.6462 28.0217C48.4309 28.9383 46.4189 30.2844 44.7263 31.9823L32.0097 44.699C28.5895 48.1239 26.6685 52.7662 26.6685 57.6064C26.6685 62.4466 28.5895 67.0889 32.0097 70.5138L42.0013 80.8961C41.8833 81.1595 41.7016 81.4683 41.6108 81.7408H27.3408C22.4994 81.7432 17.8569 83.6676 14.4335 87.091C11.0101 90.5144 9.08575 95.1569 9.08334 99.9983V118.002C9.08816 122.841 11.0135 127.482 14.4367 130.903C17.8599 134.324 22.501 136.248 27.3408 136.25H41.6471C41.7198 136.45 41.9741 137.222 42.0649 137.422L31.9824 147.504C28.5623 150.929 26.6413 155.571 26.6413 160.412C26.6413 165.252 28.5623 169.894 31.9824 173.319L44.6991 186.036C48.1776 189.353 52.7998 191.204 57.6065 191.204C62.4132 191.204 67.0354 189.353 70.5139 186.036L80.6419 175.908C80.8417 176.008 81.5502 176.335 81.7409 176.416V190.686C81.7505 195.525 83.6793 200.161 87.1039 203.579C90.5285 206.997 95.1692 208.917 100.008 208.917H117.993C122.832 208.914 127.473 206.991 130.897 203.57C134.32 200.148 136.245 195.508 136.25 190.668V176.525L137.422 175.935L147.495 186.008C150.973 189.33 155.598 191.184 160.407 191.184C165.217 191.184 169.841 189.33 173.319 186.008L186.036 173.292C189.456 169.867 191.377 165.225 191.377 160.384C191.377 155.544 189.456 150.902 186.036 147.477L176.044 137.095C176.162 136.831 176.344 136.522 176.435 136.25H190.659C195.499 136.248 200.14 134.324 203.563 130.903C206.986 127.482 208.912 122.841 208.917 118.002V99.9983C208.912 95.1585 206.986 90.5183 203.563 87.0969C200.14 83.6754 195.499 81.7523 190.659 81.7499ZM190.659 118.083H176.407C172.731 118.191 169.165 119.36 166.138 121.448C163.11 123.535 160.751 126.454 159.344 129.852C157.937 133.249 157.542 136.981 158.207 140.598C158.872 144.215 160.568 147.563 163.091 150.238L173.165 160.448L160.321 173.165L150.238 163.091C147.564 160.568 144.217 158.872 140.601 158.207C136.984 157.542 133.253 157.936 129.856 159.342C126.458 160.748 123.54 163.106 121.451 166.132C119.363 169.158 118.193 172.723 118.083 176.398L117.993 190.75L99.9167 190.668V176.398C99.8715 172.69 98.7164 169.081 96.6003 166.035C94.4843 162.99 91.5043 160.648 88.0448 159.313C85.6955 158.335 83.1772 157.829 80.6328 157.823C78.2465 157.813 75.8816 158.273 73.6731 159.177C71.4647 160.081 69.4559 161.411 67.7617 163.091L57.552 173.165L44.8353 160.321L54.8997 150.256C57.4284 147.582 59.1295 144.234 59.798 140.615C60.4664 136.996 60.0736 133.261 58.667 129.86C57.2604 126.459 54.8999 123.537 51.8703 121.448C48.8408 119.358 45.2714 118.19 41.5926 118.083L27.25 118.002L27.3408 99.9166H41.5926C45.2686 99.8086 48.8349 98.6403 51.8623 96.5523C54.8896 94.4644 57.2489 91.5459 58.6559 88.1482C60.063 84.7505 60.4579 81.0184 59.7931 77.4015C59.1283 73.7845 57.4321 70.4369 54.9088 67.7616L44.8353 57.5519L57.6792 44.8353L67.7617 54.9087C70.3795 57.4718 73.6984 59.2013 77.2989 59.8787C80.8994 60.5561 84.6199 60.151 87.9903 58.7146L88.1538 58.651C91.5893 57.3035 94.5443 54.9609 96.6399 51.9234C98.7356 48.8858 99.8766 45.2917 99.9167 41.6016L100.008 27.2499L118.083 27.3317V41.6016C118.083 45.1825 119.14 48.6837 121.123 51.6654C123.106 54.6471 125.926 56.9763 129.229 58.3603C129.465 58.4784 129.746 58.6056 130.019 58.7146C133.388 60.1515 137.107 60.5568 140.706 59.8793C144.305 59.2019 147.623 57.472 150.238 54.9087L160.448 44.8353L173.165 57.6791L163.1 67.7434C160.572 70.4174 158.871 73.7659 158.202 77.385C157.534 81.0041 157.926 84.7393 159.333 88.1402C160.74 91.5411 163.1 94.4624 166.13 96.552C169.159 98.6415 172.729 99.81 176.407 99.9166H190.659L190.75 99.9983L190.659 118.083Z" fill="#FAFAFA"/>
</svg>
