<svg width="54" height="54" viewBox="0 0 54 54" fill="none" xmlns="http://www.w3.org/2000/svg">
<g clip-path="url(#clip0_3_21)">
<path d="M10.0238 4.55625C10.3406 4.18579 10.734 3.88837 11.1768 3.68446C11.6196 3.48054 12.1013 3.37497 12.5887 3.375H41.4113C41.8987 3.37497 42.3804 3.48054 42.8232 3.68446C43.266 3.88837 43.6594 4.18579 43.9762 4.55625L52.7816 14.8298C53.5678 15.7472 54 16.9155 54 18.1237V18.9844C54.0002 20.6549 53.4784 22.2838 52.5076 23.6433C51.5368 25.0028 50.1656 26.0251 48.5854 26.5671C47.0053 27.1092 45.2952 27.1441 43.6943 26.6668C42.0934 26.1895 40.6816 25.224 39.6562 23.9051C38.9075 24.8696 37.9479 25.6499 36.8511 26.1864C35.7542 26.7228 34.5491 27.0011 33.3281 27C32.1071 27.0014 30.9019 26.7232 29.805 26.1867C28.7081 25.6502 27.7486 24.8698 27 23.9051C26.2514 24.8698 25.2919 25.6502 24.195 26.1867C23.0981 26.7232 21.8929 27.0014 20.6719 27C19.4508 27.0014 18.2457 26.7232 17.1488 26.1867C16.0519 25.6502 15.0924 24.8698 14.3438 23.9051C13.3184 25.224 11.9066 26.1895 10.3057 26.6668C8.70477 27.1441 6.99474 27.1092 5.41459 26.5671C3.83445 26.0251 2.46315 25.0028 1.49237 23.6433C0.521579 22.2838 -0.00018427 20.6549 4.88178e-08 18.9844V18.1237C4.25504e-05 16.9155 0.432191 15.7472 1.21837 14.8298L10.0271 4.55287L10.0238 4.55625ZM16.0312 18.9844C16.0312 20.2151 16.5202 21.3955 17.3905 22.2658C18.2607 23.1361 19.4411 23.625 20.6719 23.625C21.9026 23.625 23.083 23.1361 23.9533 22.2658C24.8236 21.3955 25.3125 20.2151 25.3125 18.9844C25.3125 18.5368 25.4903 18.1076 25.8068 17.7911C26.1232 17.4747 26.5524 17.2969 27 17.2969C27.4476 17.2969 27.8768 17.4747 28.1932 17.7911C28.5097 18.1076 28.6875 18.5368 28.6875 18.9844C28.6875 20.2151 29.1764 21.3955 30.0467 22.2658C30.917 23.1361 32.0974 23.625 33.3281 23.625C34.5589 23.625 35.7393 23.1361 36.6095 22.2658C37.4798 21.3955 37.9688 20.2151 37.9688 18.9844C37.9688 18.5368 38.1465 18.1076 38.463 17.7911C38.7795 17.4747 39.2087 17.2969 39.6562 17.2969C40.1038 17.2969 40.533 17.4747 40.8495 17.7911C41.166 18.1076 41.3438 18.5368 41.3438 18.9844C41.3438 20.2151 41.8327 21.3955 42.703 22.2658C43.5732 23.1361 44.7536 23.625 45.9844 23.625C47.2151 23.625 48.3955 23.1361 49.2658 22.2658C50.1361 21.3955 50.625 20.2151 50.625 18.9844V18.1237C50.625 17.7215 50.4814 17.3326 50.22 17.0269L41.4113 6.75H12.5887L3.78 17.0269C3.5186 17.3326 3.37497 17.7215 3.375 18.1237V18.9844C3.375 20.2151 3.86392 21.3955 4.73421 22.2658C5.60449 23.1361 6.78485 23.625 8.01562 23.625C9.2464 23.625 10.4268 23.1361 11.297 22.2658C12.1673 21.3955 12.6562 20.2151 12.6562 18.9844C12.6562 18.5368 12.834 18.1076 13.1505 17.7911C13.467 17.4747 13.8962 17.2969 14.3438 17.2969C14.7913 17.2969 15.2205 17.4747 15.537 17.7911C15.8535 18.1076 16.0312 18.5368 16.0312 18.9844ZM5.0625 28.6875C5.51005 28.6875 5.93928 28.8653 6.25574 29.1818C6.57221 29.4982 6.75 29.9274 6.75 30.375V50.625H10.125V33.75C10.125 32.8549 10.4806 31.9965 11.1135 31.3635C11.7464 30.7306 12.6049 30.375 13.5 30.375H23.625C24.5201 30.375 25.3785 30.7306 26.0115 31.3635C26.6444 31.9965 27 32.8549 27 33.75V50.625H47.25V30.375C47.25 29.9274 47.4278 29.4982 47.7443 29.1818C48.0607 28.8653 48.4899 28.6875 48.9375 28.6875C49.3851 28.6875 49.8143 28.8653 50.1307 29.1818C50.4472 29.4982 50.625 29.9274 50.625 30.375V50.625H52.3125C52.7601 50.625 53.1893 50.8028 53.5057 51.1193C53.8222 51.4357 54 51.8649 54 52.3125C54 52.7601 53.8222 53.1893 53.5057 53.5057C53.1893 53.8222 52.7601 54 52.3125 54H1.6875C1.23995 54 0.810725 53.8222 0.494257 53.5057C0.17779 53.1893 4.88178e-08 52.7601 4.88178e-08 52.3125C4.88178e-08 51.8649 0.17779 51.4357 0.494257 51.1193C0.810725 50.8028 1.23995 50.625 1.6875 50.625H3.375V30.375C3.375 29.9274 3.55279 29.4982 3.86926 29.1818C4.18572 28.8653 4.61495 28.6875 5.0625 28.6875ZM13.5 50.625H23.625V33.75H13.5V50.625ZM30.375 33.75C30.375 32.8549 30.7306 31.9965 31.3635 31.3635C31.9965 30.7306 32.8549 30.375 33.75 30.375H40.5C41.3951 30.375 42.2535 30.7306 42.8865 31.3635C43.5194 31.9965 43.875 32.8549 43.875 33.75V43.875C43.875 44.7701 43.5194 45.6285 42.8865 46.2615C42.2535 46.8944 41.3951 47.25 40.5 47.25H33.75C32.8549 47.25 31.9965 46.8944 31.3635 46.2615C30.7306 45.6285 30.375 44.7701 30.375 43.875V33.75ZM40.5 33.75H33.75V43.875H40.5V33.75Z" fill="#1E1E1E"/>
</g>
<defs>
<clipPath id="clip0_3_21">
<rect width="54" height="54" fill="white"/>
</clipPath>
</defs>
</svg>
