<svg width="169" height="169" viewBox="0 0 169 169" fill="none" xmlns="http://www.w3.org/2000/svg">
<g clip-path="url(#clip0_6_2)">
<path d="M31.3706 14.2594C32.3623 13.1 33.5934 12.1692 34.9791 11.531C36.3649 10.8928 37.8725 10.5624 39.3981 10.5625H129.602C131.128 10.5624 132.635 10.8928 134.021 11.531C135.407 12.1692 136.638 13.1 137.629 14.2594L165.187 46.4116C167.647 49.2829 169 52.9394 169 56.7206V59.4141C169.001 64.6422 167.368 69.74 164.329 73.9948C161.291 78.2496 157 81.4488 152.054 83.1453C147.109 84.8418 141.757 84.9509 136.747 83.4572C131.737 81.9635 127.318 78.9417 124.109 74.8142C121.766 77.8326 118.763 80.2747 115.33 81.9536C111.897 83.6324 108.126 84.5035 104.305 84.5C100.483 84.5043 96.7116 83.6336 93.2787 81.9547C89.8458 80.2758 86.8428 77.8332 84.5 74.8142C82.1572 77.8332 79.1542 80.2758 75.7213 81.9547C72.2884 83.6336 68.5168 84.5043 64.6953 84.5C60.8739 84.5043 57.1022 83.6336 53.6693 81.9547C50.2364 80.2758 47.2335 77.8332 44.8906 74.8142C41.6816 78.9417 37.2633 81.9635 32.253 83.4572C27.2427 84.9509 21.891 84.8418 16.9457 83.1453C12.0004 81.4488 7.70875 78.2496 4.67055 73.9948C1.63235 69.74 -0.000576697 64.6422 1.52782e-07 59.4141V56.7206C0.000133167 52.9394 1.3526 49.2829 3.81306 46.4116L31.3812 14.2488L31.3706 14.2594ZM50.1719 59.4141C50.1719 63.2659 51.702 66.96 54.4257 69.6837C57.1494 72.4074 60.8435 73.9375 64.6953 73.9375C68.5472 73.9375 72.2413 72.4074 74.9649 69.6837C77.6886 66.96 79.2188 63.2659 79.2188 59.4141C79.2188 58.0134 79.7752 56.6701 80.7656 55.6797C81.756 54.6892 83.0993 54.1328 84.5 54.1328C85.9007 54.1328 87.244 54.6892 88.2344 55.6797C89.2248 56.6701 89.7812 58.0134 89.7812 59.4141C89.7812 63.2659 91.3114 66.96 94.0351 69.6837C96.7587 72.4074 100.453 73.9375 104.305 73.9375C108.157 73.9375 111.851 72.4074 114.574 69.6837C117.298 66.96 118.828 63.2659 118.828 59.4141C118.828 58.0134 119.385 56.6701 120.375 55.6797C121.365 54.6892 122.709 54.1328 124.109 54.1328C125.51 54.1328 126.853 54.6892 127.844 55.6797C128.834 56.6701 129.391 58.0134 129.391 59.4141C129.391 63.2659 130.921 66.96 133.644 69.6837C136.368 72.4074 140.062 73.9375 143.914 73.9375C147.766 73.9375 151.46 72.4074 154.184 69.6837C156.907 66.96 158.438 63.2659 158.438 59.4141V56.7206C158.438 55.4619 157.988 54.2445 157.17 53.2878L129.602 21.125H39.3981L11.83 53.2878C11.0119 54.2445 10.5624 55.4619 10.5625 56.7206V59.4141C10.5625 63.2659 12.0926 66.96 14.8163 69.6837C17.54 72.4074 21.2341 73.9375 25.0859 73.9375C28.9378 73.9375 32.6319 72.4074 35.3556 69.6837C38.0792 66.96 39.6094 63.2659 39.6094 59.4141C39.6094 58.0134 40.1658 56.6701 41.1562 55.6797C42.1466 54.6892 43.49 54.1328 44.8906 54.1328C46.2913 54.1328 47.6346 54.6892 48.625 55.6797C49.6155 56.6701 50.1719 58.0134 50.1719 59.4141ZM15.8438 89.7812C17.2444 89.7812 18.5877 90.3377 19.5782 91.3281C20.5686 92.3185 21.125 93.6618 21.125 95.0625V158.438H31.6875V105.625C31.6875 102.824 32.8003 100.137 34.7812 98.1562C36.762 96.1753 39.4487 95.0625 42.25 95.0625H73.9375C76.7388 95.0625 79.4255 96.1753 81.4063 98.1562C83.3872 100.137 84.5 102.824 84.5 105.625V158.438H147.875V95.0625C147.875 93.6618 148.431 92.3185 149.422 91.3281C150.412 90.3377 151.756 89.7812 153.156 89.7812C154.557 89.7812 155.9 90.3377 156.891 91.3281C157.881 92.3185 158.438 93.6618 158.438 95.0625V158.438H163.719C165.119 158.438 166.463 158.994 167.453 159.984C168.444 160.975 169 162.318 169 163.719C169 165.119 168.444 166.463 167.453 167.453C166.463 168.444 165.119 169 163.719 169H5.28125C3.88058 169 2.53727 168.444 1.54684 167.453C0.556416 166.463 1.52782e-07 165.119 1.52782e-07 163.719C1.52782e-07 162.318 0.556416 160.975 1.54684 159.984C2.53727 158.994 3.88058 158.438 5.28125 158.438H10.5625V95.0625C10.5625 93.6618 11.1189 92.3185 12.1093 91.3281C13.0998 90.3377 14.4431 89.7812 15.8438 89.7812ZM42.25 158.438H73.9375V105.625H42.25V158.438ZM95.0625 105.625C95.0625 102.824 96.1753 100.137 98.1562 98.1562C100.137 96.1753 102.824 95.0625 105.625 95.0625H126.75C129.551 95.0625 132.238 96.1753 134.219 98.1562C136.2 100.137 137.312 102.824 137.312 105.625V137.312C137.312 140.114 136.2 142.8 134.219 144.781C132.238 146.762 129.551 147.875 126.75 147.875H105.625C102.824 147.875 100.137 146.762 98.1562 144.781C96.1753 142.8 95.0625 140.114 95.0625 137.312V105.625ZM126.75 105.625H105.625V137.312H126.75V105.625Z" fill="#FAFAFA"/>
</g>
<defs>
<clipPath id="clip0_6_2">
<rect width="169" height="169" fill="white"/>
</clipPath>
</defs>
</svg>
