<svg width="60" height="62" viewBox="0 0 60 62" fill="none" xmlns="http://www.w3.org/2000/svg">
<path d="M5.1706 38.1379C2.27647 33.7444 2.27647 28.2555 5.1706 23.8621C6.05376 22.5212 7.51684 21.5821 9.20008 21.2754L16.0721 20.0235C16.4815 19.9489 16.8506 19.7489 17.1179 19.4567L25.5164 10.2769C30.3164 5.03025 32.7164 2.40691 34.858 3.11323C37 3.81955 37 7.23436 37 14.0639V47.9359C37 54.7655 37 58.1803 34.858 58.8868C32.7164 59.593 30.3164 56.9698 25.5164 51.723L17.1179 42.5431C16.8506 42.2511 16.4815 42.051 16.0721 41.9764L9.20008 40.7245C7.51684 40.418 6.05376 39.4789 5.1706 38.1379Z" stroke="#33363F" stroke-width="4"/>
<path d="M52 16C55.8482 19.8636 58.0196 25.0977 58.0411 30.5614C58.0625 36.0255 55.9324 41.2763 52.1147 45.1703" stroke="#33363F" stroke-width="2" stroke-linecap="round"/>
<path d="M45 22C47.548 24.5165 48.9857 27.9258 48.9999 31.4845C49.0141 35.0436 47.6037 38.4637 45.0759 41" stroke="#33363F" stroke-width="2" stroke-linecap="round"/>
</svg>
