<svg width="198" height="198" viewBox="0 0 198 198" fill="none" xmlns="http://www.w3.org/2000/svg">
<path d="M122.158 89.39L154.16 44.8671C156.925 41.0224 158.429 36.4428 158.429 31.7457V17.8393H167.675V0H30.3246V17.8393H39.5718V31.7457C39.5718 36.4424 41.0746 41.0224 43.8408 44.8671L75.8425 89.39C76.9884 90.9895 77.5719 92.8152 77.5762 94.6746V103.322C77.5719 105.181 76.9884 107.007 75.8425 108.606L43.8408 153.133C41.0742 156.978 39.5718 161.557 39.5718 166.25V180.161H30.3246V198H167.675V180.161H158.428V166.25C158.428 161.558 156.925 156.978 154.159 153.134L122.158 108.606C121.012 107.007 120.425 105.181 120.425 103.322V94.6746C120.425 92.8152 121.012 90.9895 122.158 89.39ZM149.509 178.377H48.4919V166.25C48.4919 163.455 49.3778 160.714 51.0813 158.338L83.0835 113.811C85.2909 110.743 86.4959 107.078 86.4959 103.322V94.6746C86.4959 90.918 85.2912 87.2488 83.0835 84.1852L51.0856 39.6623C49.3774 37.282 48.4915 34.5452 48.4915 31.7457V19.6233H149.509V31.7457C149.504 34.5452 148.623 37.282 146.914 39.6623L114.912 84.1852C112.709 87.2488 111.504 90.918 111.504 94.6746V103.322C111.504 107.078 112.708 110.743 114.912 113.811L146.918 158.338C148.623 160.714 149.504 163.455 149.509 166.25V178.377H149.509Z" fill="#1E1E1E"/>
<path d="M91.3693 90.078H106.632C107.278 86.8628 108.6 83.7988 110.569 81.062L133.575 49.0518H64.4254L87.4321 81.062C89.4005 83.7988 90.7184 86.8632 91.3693 90.078Z" fill="#1E1E1E"/>
<path d="M95.424 147.567L69.9702 173.025H128.03L102.576 147.567C100.6 145.594 97.401 145.594 95.424 147.567Z" fill="#1E1E1E"/>
<path d="M98.8577 95.9043C96.6581 95.9043 94.8741 97.6886 94.8741 99.8921C94.8741 102.092 96.6585 103.875 98.8577 103.875C101.057 103.875 102.845 102.092 102.845 99.8921C102.845 97.6886 101.057 95.9043 98.8577 95.9043Z" fill="#1E1E1E"/>
<path d="M98.8577 111.96C96.6581 111.96 94.8741 113.744 94.8741 115.943C94.8741 118.147 96.6585 119.931 98.8577 119.931C101.057 119.931 102.845 118.147 102.845 115.943C102.845 113.744 101.057 111.96 98.8577 111.96Z" fill="#1E1E1E"/>
<path d="M98.8577 128.485C96.6581 128.485 94.8741 130.269 94.8741 132.473C94.8741 134.672 96.6585 136.461 98.8577 136.461C101.057 136.461 102.845 134.672 102.845 132.473C102.845 130.269 101.057 128.485 98.8577 128.485Z" fill="#1E1E1E"/>
</svg>
