<svg width="240" height="203" viewBox="0 0 240 203" fill="none" xmlns="http://www.w3.org/2000/svg">
<g clip-path="url(#clip0_7_178)">
<path d="M0 0V203H240V0H0ZM38.3985 193.343H9.59963V154.676H38.3985V193.343ZM38.3985 145.009H9.59963V106.343H38.3985V145.009ZM38.3985 96.6759H9.59963V58.0092H38.3985V96.6759ZM38.3985 48.3425H9.59963V9.67588H38.3985V48.3425ZM191.993 64.4506V193.343H47.9982V9.67588H191.993V64.4506ZM230.4 193.343H201.601V154.676H230.4V193.343ZM230.4 145.009H201.601V106.343H230.4V145.009ZM230.4 96.6759H201.601V58.0092H230.4V96.6759ZM230.4 48.3425H201.601V9.67588H230.4V48.3425Z" fill="white"/>
<path d="M96 62V140L163 101.005L96 62ZM105.571 78.7149L143.857 101.005L105.571 123.294V78.7241V78.7149Z" fill="white"/>
</g>
<defs>
<clipPath id="clip0_7_178">
<rect width="240" height="203" fill="white"/>
</clipPath>
</defs>
</svg>
